<svg width="1110" height="179" viewBox="0 0 1110 179" fill="none" xmlns="http://www.w3.org/2000/svg">
<g clip-path="url(#clip0_83_2)">
<path d="M85 175C131.944 175 170 136.944 170 90C170 43.0558 131.944 5 85 5C38.0558 5 0 43.0558 0 90C0 136.944 38.0558 175 85 175Z" fill="black"/>
<path d="M0 173.366V88.3962L86.6038 175L0 173.366Z" fill="black"/>
<path d="M94.526 42.3624H75.8104V137.188H94.526V42.3624Z" fill="#F1E9DA"/>
<path d="M121.352 122.204L130.71 105.996L48.5883 58.5829L39.2305 74.7911L121.352 122.204Z" fill="#F1E9DA"/>
<path d="M131.334 74.7909L121.976 58.5828L39.8545 105.996L49.2123 122.204L131.334 74.7909Z" fill="#F1E9DA"/>
</g>
<path d="M219.034 143V35.3636H231.438V75.0966H232.489C233.4 73.6951 234.661 71.9081 236.273 69.7358C237.92 67.5284 240.267 65.5663 243.315 63.8494C246.399 62.0975 250.568 61.2216 255.824 61.2216C262.621 61.2216 268.613 62.9209 273.798 66.3196C278.984 69.7183 283.031 74.536 285.939 80.7727C288.847 87.0095 290.301 94.3674 290.301 102.847C290.301 111.396 288.847 118.806 285.939 125.078C283.031 131.315 279.001 136.15 273.851 139.584C268.7 142.982 262.761 144.682 256.034 144.682C250.848 144.682 246.696 143.823 243.578 142.107C240.46 140.355 238.06 138.375 236.378 136.168C234.696 133.925 233.4 132.068 232.489 130.597H231.017V143H219.034ZM231.227 102.636C231.227 108.733 232.121 114.111 233.908 118.771C235.695 123.396 238.305 127.023 241.739 129.651C245.172 132.243 249.377 133.54 254.352 133.54C259.538 133.54 263.865 132.173 267.334 129.44C270.838 126.672 273.465 122.958 275.217 118.298C277.004 113.603 277.898 108.383 277.898 102.636C277.898 96.9602 277.022 91.8447 275.27 87.2898C273.553 82.6998 270.943 79.0734 267.439 76.4105C263.97 73.7126 259.608 72.3636 254.352 72.3636C249.307 72.3636 245.067 73.6425 241.634 76.2003C238.2 78.723 235.607 82.2618 233.855 86.8168C232.103 91.3366 231.227 96.6098 231.227 102.636ZM321.678 35.3636V143H309.274V35.3636H321.678ZM395.27 109.994V62.2727H407.674V143H395.27V129.335H394.429C392.537 133.435 389.594 136.921 385.6 139.794C381.605 142.632 376.56 144.051 370.463 144.051C365.418 144.051 360.933 142.947 357.009 140.74C353.085 138.498 350.001 135.134 347.759 130.649C345.516 126.129 344.395 120.436 344.395 113.568V62.2727H356.799V112.727C356.799 118.614 358.445 123.309 361.739 126.812C365.068 130.316 369.307 132.068 374.458 132.068C377.541 132.068 380.677 131.28 383.865 129.703C387.089 128.126 389.787 125.709 391.959 122.45C394.167 119.192 395.27 115.04 395.27 109.994ZM464.238 144.682C456.46 144.682 449.75 142.965 444.109 139.531C438.503 136.062 434.175 131.227 431.127 125.026C428.114 118.789 426.607 111.536 426.607 103.267C426.607 94.9981 428.114 87.7102 431.127 81.4034C434.175 75.0616 438.415 70.1212 443.846 66.5824C449.312 63.0085 455.689 61.2216 462.977 61.2216C467.181 61.2216 471.333 61.9223 475.433 63.3239C479.532 64.7254 483.263 67.0028 486.627 70.1562C489.991 73.2746 492.671 77.4091 494.668 82.5597C496.665 87.7102 497.664 94.0521 497.664 101.585V106.841H435.437V96.1193H485.05C485.05 91.5644 484.139 87.5 482.317 83.9261C480.531 80.3523 477.973 77.5317 474.644 75.4645C471.351 73.3973 467.461 72.3636 462.977 72.3636C458.036 72.3636 453.762 73.59 450.153 76.0426C446.579 78.4602 443.828 81.6136 441.901 85.5028C439.974 89.392 439.011 93.5616 439.011 98.0114V105.159C439.011 111.256 440.062 116.424 442.164 120.663C444.301 124.868 447.262 128.074 451.046 130.281C454.83 132.454 459.228 133.54 464.238 133.54C467.496 133.54 470.44 133.084 473.067 132.173C475.73 131.227 478.025 129.826 479.952 127.969C481.88 126.077 483.369 123.729 484.42 120.926L496.403 124.29C495.141 128.354 493.022 131.928 490.043 135.011C487.065 138.06 483.386 140.442 479.006 142.159C474.627 143.841 469.704 144.682 464.238 144.682ZM516.532 173.273V62.2727H528.515V75.0966H529.987C530.897 73.6951 532.159 71.9081 533.771 69.7358C535.417 67.5284 537.765 65.5663 540.813 63.8494C543.897 62.0975 548.066 61.2216 553.322 61.2216C560.119 61.2216 566.111 62.9209 571.296 66.3196C576.482 69.7183 580.529 74.536 583.437 80.7727C586.345 87.0095 587.799 94.3674 587.799 102.847C587.799 111.396 586.345 118.806 583.437 125.078C580.529 131.315 576.499 136.15 571.349 139.584C566.198 142.982 560.259 144.682 553.532 144.682C548.346 144.682 544.194 143.823 541.076 142.107C537.958 140.355 535.558 138.375 533.876 136.168C532.194 133.925 530.897 132.068 529.987 130.597H528.935V173.273H516.532ZM528.725 102.636C528.725 108.733 529.619 114.111 531.406 118.771C533.192 123.396 535.803 127.023 539.237 129.651C542.67 132.243 546.875 133.54 551.85 133.54C557.036 133.54 561.363 132.173 564.832 129.44C568.335 126.672 570.963 122.958 572.715 118.298C574.502 113.603 575.396 108.383 575.396 102.636C575.396 96.9602 574.52 91.8447 572.768 87.2898C571.051 82.6998 568.441 79.0734 564.937 76.4105C561.468 73.7126 557.106 72.3636 551.85 72.3636C546.805 72.3636 542.565 73.6425 539.131 76.2003C535.698 78.723 533.105 82.2618 531.353 86.8168C529.601 91.3366 528.725 96.6098 528.725 102.636ZM606.719 143V62.2727H618.702V74.4659H619.543C621.015 70.4716 623.678 67.2306 627.532 64.7429C631.386 62.2552 635.731 61.0114 640.566 61.0114C641.477 61.0114 642.616 61.0289 643.982 61.0639C645.349 61.099 646.382 61.1515 647.083 61.2216V73.8352C646.663 73.7301 645.699 73.5724 644.192 73.3622C642.721 73.1169 641.162 72.9943 639.515 72.9943C635.591 72.9943 632.087 73.8177 629.004 75.4645C625.955 77.0762 623.538 79.3187 621.751 82.1918C619.999 85.0298 619.123 88.2708 619.123 91.9148V143H606.719ZM661.786 143V62.2727H674.189V143H661.786ZM668.093 48.8182C665.675 48.8182 663.59 47.9948 661.838 46.348C660.122 44.7012 659.263 42.7216 659.263 40.4091C659.263 38.0966 660.122 36.1169 661.838 34.4702C663.59 32.8234 665.675 32 668.093 32C670.51 32 672.578 32.8234 674.294 34.4702C676.046 36.1169 676.922 38.0966 676.922 40.4091C676.922 42.7216 676.046 44.7012 674.294 46.348C672.578 47.9948 670.51 48.8182 668.093 48.8182ZM709.31 94.4375V143H696.907V62.2727H708.89V74.8864H709.941C711.833 70.7869 714.706 67.4934 718.56 65.0057C722.415 62.483 727.39 61.2216 733.487 61.2216C738.952 61.2216 743.735 62.3428 747.835 64.5852C751.934 66.7926 755.122 70.1562 757.4 74.6761C759.677 79.161 760.816 84.8371 760.816 91.7045V143H748.413V92.5455C748.413 86.2036 746.766 81.2633 743.472 77.7244C740.179 74.1506 735.659 72.3636 729.913 72.3636C725.953 72.3636 722.415 73.2221 719.296 74.9389C716.213 76.6558 713.778 79.161 711.991 82.4545C710.204 85.7481 709.31 89.7424 709.31 94.4375ZM818.589 62.2727V72.7841H776.754V62.2727H818.589ZM788.947 42.9318H801.35V119.875C801.35 123.379 801.859 126.007 802.875 127.759C803.926 129.475 805.257 130.632 806.869 131.227C808.516 131.788 810.25 132.068 812.072 132.068C813.439 132.068 814.56 131.998 815.436 131.858C816.312 131.683 817.012 131.543 817.538 131.438L820.061 142.58C819.22 142.895 818.046 143.21 816.539 143.526C815.033 143.876 813.123 144.051 810.811 144.051C807.307 144.051 803.873 143.298 800.51 141.791C797.181 140.285 794.413 137.99 792.206 134.906C790.033 131.823 788.947 127.934 788.947 123.239V42.9318ZM846.287 143.841C843.694 143.841 841.469 142.912 839.612 141.055C837.755 139.198 836.826 136.973 836.826 134.381C836.826 131.788 837.755 129.563 839.612 127.706C841.469 125.849 843.694 124.92 846.287 124.92C848.879 124.92 851.104 125.849 852.961 127.706C854.818 129.563 855.747 131.788 855.747 134.381C855.747 136.098 855.309 137.674 854.433 139.111C853.592 140.547 852.453 141.704 851.017 142.58C849.615 143.42 848.038 143.841 846.287 143.841ZM887.255 62.2727L906.596 95.2784L925.936 62.2727H940.232L914.164 102.636L940.232 143H925.936L906.596 111.676L887.255 143H872.959L898.607 102.636L872.959 62.2727H887.255ZM965.919 173.273C963.817 173.273 961.942 173.098 960.295 172.747C958.649 172.432 957.51 172.116 956.879 171.801L960.033 160.869C963.046 161.64 965.709 161.92 968.021 161.71C970.334 161.5 972.384 160.466 974.17 158.609C975.992 156.787 977.657 153.827 979.163 149.727L981.476 143.42L951.624 62.2727H965.078L987.362 126.602H988.203L1010.49 62.2727H1023.94L989.675 154.773C988.133 158.942 986.223 162.393 983.946 165.126C981.669 167.894 979.023 169.944 976.01 171.276C973.032 172.607 969.668 173.273 965.919 173.273ZM1038 143V133.54L1083.83 74.6761V73.8352H1039.47V62.2727H1099.81V72.1534L1055.24 130.597V131.438H1101.28V143H1038Z" fill="black"/>
<defs>
<clipPath id="clip0_83_2">
<rect width="170" height="170" fill="white" transform="translate(0 5)"/>
</clipPath>
</defs>
</svg>
